<svg width="306" height="115" viewBox="0 0 306 115" fill="none" xmlns="http://www.w3.org/2000/svg">
<g clip-path="url(#clip0_13_38)">
<path d="M32.8649 92C50.0604 92 64 77.6731 64 60C64 42.3269 50.0604 28 32.8649 28C15.6695 28 1.7298 42.3269 1.7298 60C1.7298 77.6731 15.6695 92 32.8649 92Z" fill="#00A3FF"/>
<mask id="mask0_13_38" style="mask-type:luminance" maskUnits="userSpaceOnUse" x="1" y="28" width="64" height="64">
<path d="M32.865 92C50.0605 92 64.0002 77.6731 64.0002 60C64.0002 42.3269 50.0605 28 32.865 28C15.6695 28 1.7298 42.3269 1.7298 60C1.7298 77.6731 15.6695 92 32.865 92Z" fill="white"/>
</mask>
<g mask="url(#mask0_13_38)">
<path fill-rule="evenodd" clip-rule="evenodd" d="M48.992 51.1067C48.992 51.1067 41.6302 47.9378 39.4373 49.5227C37.2444 51.1067 38.416 58.5893 38.416 58.5893C38.416 58.5893 35.1476 63.5298 36.7822 66.128C38.416 68.7262 42.9547 67.8329 45.5049 70.1253C48.0551 72.4169 46.9956 76.5307 46.9956 76.5307L46.3787 81.3333C46.3787 81.3333 53.2089 78.1049 55.1769 73.4533C57.1449 68.8018 56.5076 61.5102 56.5076 61.5102L60.4942 57.6969L64 45.7049L51.6978 41.5076L50.3422 35.1111L41.5449 37.7413L40.7493 44.7182L47.5067 47.0782L48.992 51.1067ZM0 54.6667C0 54.6667 2.61689 53.0329 2.96622 53.0071C5.64622 52.8071 14.9849 53.3653 17.4258 49.8987C20.1858 45.9813 22.4862 40.7929 22.4862 40.7929L22.3938 36.8009L7.96356 33.3333L0 54.6667Z" fill="#00790C"/>
</g>
</g>
<path d="M77.7188 27.4531C81.8125 27.4531 83.8594 29.1094 83.8594 32.4219L83.7656 33.5469L83.4375 36.0312C83.3125 37.4688 83.25 39.5 83.25 42.125V51.7812C83.25 65.3438 83.8594 73.5938 85.0781 76.5312C87.3906 82.0938 91.6562 84.8906 97.875 84.9219C101.375 84.9219 104.203 84 106.359 82.1562C108.547 80.2812 110.109 77.9844 111.047 75.2656C112.453 71.2344 113.156 61.5312 113.156 46.1562C113.156 40.5312 113.031 36.6719 112.781 34.5781C112.562 32.4531 112.453 31.0938 112.453 30.5C112.453 28.2813 114.062 27.1719 117.281 27.1719H118.688C120.188 27.1719 121.328 27.6719 122.109 28.6719C123.453 30.3906 124.125 31.9531 124.125 33.3594V34.8594C124.125 35.5469 123.766 36.8906 123.047 38.8906C122.359 40.8906 121.953 42.8281 121.828 44.7031C121.734 46.5469 121.688 51.3438 121.688 59.0938C121.688 59.5 121.688 59.9062 121.688 60.3125C121.688 67.4062 121.422 72.4219 120.891 75.3594C120.328 78.4531 119.078 81.3125 117.141 83.9375C113.234 89.1875 106.25 91.8125 96.1875 91.8125C83.125 91.8125 75.6562 85.75 73.7812 73.625C73.3125 70.5938 73.0781 66.0938 73.0781 60.125C73.0781 54.125 73 49.4844 72.8438 46.2031C72.7188 42.8906 72.2656 40.2188 71.4844 38.1875C70.7344 36.1562 70.3594 34.6875 70.3594 33.7812C70.3594 31.6875 71.1719 29.9375 72.7969 28.5312C73.6406 27.8125 75.2812 27.4531 77.7188 27.4531ZM153.562 58.2969H154.734C159.672 58.2969 163.594 57.1562 166.5 54.875C169.406 52.5938 170.859 49.5469 170.859 45.7344V43.4375C170.859 40.0625 169.75 37.375 167.531 35.375C165.344 33.3438 162.297 32.3281 158.391 32.3281H156.75L156.328 32.375L154.734 32.4688C154.172 32.5312 153.781 32.5625 153.562 32.5625C150.906 32.5625 149.578 33.8281 149.578 36.3594L149.438 37.5781L149.344 39.3125C149.344 39.5938 149.344 39.875 149.344 40.1562L149.297 40.625V42.7812L149.25 44.0938V51.9688L149.203 53.2812C149.203 55.4375 149.469 56.8125 150 57.4062C150.531 58 151.719 58.2969 153.562 58.2969ZM139.172 41.4219C139.141 40.5156 139.125 39.2031 139.125 37.4844C139.125 35.7344 138.969 33.9688 138.656 32.1875C138.344 30.4062 138.188 29.3125 138.188 28.9062C138.188 27.6875 139.406 26.8594 141.844 26.4219C144.281 25.9844 148.562 25.7656 154.688 25.7656H157.594C169.531 25.7656 177 29.375 180 36.5938C180.781 38.5 181.172 40.8594 181.172 43.6719C181.172 46.4531 180.625 48.9688 179.531 51.2188C178.438 53.4375 176.781 55.7188 174.562 58.0625C172.375 60.375 171.281 62.3125 171.281 63.875C171.281 65.4062 172.625 68.5469 175.312 73.2969C178.031 78.0156 180.031 81.0625 181.312 82.4375C183.812 85.0625 185.062 86.8906 185.062 87.9219V88.7656C185.062 90.2344 183.906 90.9688 181.594 90.9688H180.469C178.344 90.9688 176.391 90.0312 174.609 88.1562C173.578 87.0625 171.391 83.7344 168.047 78.1719C164.703 72.5781 162.844 69.5781 162.469 69.1719C160.5 66.9844 158.359 65.8906 156.047 65.8906C153.734 65.8906 151.984 67.125 150.797 69.5938C150.203 70.8125 149.906 72.6406 149.906 75.0781C149.906 77.5156 150.109 79.7969 150.516 81.9219C150.922 84.0156 151.125 85.2188 151.125 85.5312C151.125 87.375 150.391 88.7188 148.922 89.5625C147.484 90.4062 145.688 90.8281 143.531 90.8281C141.375 90.8281 139.875 90.5 139.031 89.8438C137.531 88.6875 136.781 87.0938 136.781 85.0625C136.781 84.2812 137.141 83.0781 137.859 81.4531C138.609 79.7969 139.062 78.2656 139.219 76.8594C139.406 75.4531 139.5 72.2344 139.5 67.2031V53.8906L139.453 52.4844C139.422 51.5469 139.406 50.6094 139.406 49.6719L139.266 44.1406L139.172 41.4219Z" fill="black"/>
<path d="M209.773 26.4297C209.773 27.7539 209.164 28.416 207.945 28.416C207.793 28.4043 207.061 28.3164 205.748 28.1523C204.436 27.9883 203.188 27.9062 202.004 27.9062C200.832 27.9062 200.07 28.1875 199.719 28.75C199.367 29.3125 199.191 30.584 199.191 32.5645C199.191 33.209 199.396 33.707 199.807 34.0586C200.229 34.4102 200.996 34.5859 202.109 34.5859C202.414 34.5859 202.936 34.5039 203.674 34.3398C204.412 34.1641 205.039 34.0762 205.555 34.0762C206.797 34.0762 207.418 34.6445 207.418 35.7812C207.418 36.6133 207.354 37.2051 207.225 37.5566C207.014 38.1426 206.627 38.4355 206.064 38.4355C205.514 38.4355 204.863 38.3594 204.113 38.207C203.363 38.043 202.531 37.9609 201.617 37.9609C200.703 37.9609 200.035 38.1543 199.613 38.541C199.191 38.9277 198.98 39.9648 198.98 41.6523C198.98 43.3281 199.191 44.4238 199.613 44.9395C200.047 45.4551 200.773 45.7129 201.793 45.7129C202.824 45.7129 204.096 45.5781 205.607 45.3086C207.119 45.0273 208.086 44.8867 208.508 44.8867C208.941 44.8867 209.334 45.0156 209.686 45.2734C210.049 45.5312 210.23 46.0938 210.23 46.9609C210.23 47.8281 209.826 48.4199 209.018 48.7363C208.443 48.959 206.557 49.0703 203.357 49.0703H198.682C196.467 49.0703 195.031 48.9473 194.375 48.7012C193.719 48.4434 193.391 47.916 193.391 47.1191C193.391 46.8496 193.508 46.3047 193.742 45.4844C193.977 44.6641 194.1 43.0762 194.111 40.7207C194.111 38.3652 194.146 36.3086 194.217 34.5508L194.305 32.582C194.352 31.4219 194.375 30.5078 194.375 29.8398C194.375 29.1719 194.246 28.457 193.988 27.6953C193.73 26.9453 193.602 26.3594 193.602 25.9375C193.602 25.5156 193.725 25.2109 193.971 25.0234C194.229 24.8359 194.744 24.6719 195.518 24.5312C196.291 24.3906 198.934 24.3203 203.445 24.3203L205.379 24.3027H206.012C207.418 24.3027 208.396 24.4668 208.947 24.7949C209.498 25.123 209.773 25.668 209.773 26.4297ZM220.795 38.3125V38.5234C220.795 38.7695 221.598 38.8926 223.203 38.8926H224.697C226.162 38.8926 226.895 38.7812 226.895 38.5586V38.3477C226.895 37.3047 226.068 34.6328 224.416 30.332C224.193 29.7461 224.041 29.4531 223.959 29.4531C223.936 29.4531 223.871 29.582 223.766 29.8398C223.672 30.0859 223.555 30.3613 223.414 30.666C221.668 34.4512 220.795 37 220.795 38.3125ZM234.717 46.0996V46.4512C234.717 47.5059 234.418 48.2266 233.82 48.6133C233.434 48.8594 232.771 48.9824 231.834 48.9824H231.412C230.451 48.9824 229.807 48.6953 229.479 48.1211C229.314 47.8398 229.133 47.0195 228.934 45.6602C228.734 44.3008 228.389 43.3633 227.896 42.8477C227.404 42.332 226.479 42.0742 225.119 42.0742C222.025 42.0742 220.209 42.3145 219.67 42.7949C219.131 43.2754 218.744 44.2539 218.51 45.7305C218.275 47.1953 218.1 48.0156 217.982 48.1914C217.678 48.6602 217.068 48.8945 216.154 48.8945C215.24 48.8945 214.607 48.6484 214.256 48.1562C213.916 47.6641 213.746 47.0137 213.746 46.2051C213.746 45.8418 214.238 44.6758 215.223 42.707C215.316 42.5312 216.201 40.0176 217.877 35.166C219.553 30.3027 220.619 27.3965 221.076 26.4473C221.545 25.4863 221.996 24.8711 222.43 24.6016C222.863 24.332 223.508 24.1973 224.363 24.1973C225.23 24.1973 225.857 24.4082 226.244 24.8301C226.631 25.2402 227.123 26.0898 227.721 27.3789C228.33 28.668 229.162 30.7832 230.217 33.7246C231.283 36.666 232.062 38.8926 232.555 40.4043C233.047 41.9043 233.334 42.7539 233.416 42.9531C234.283 44.9453 234.717 45.9941 234.717 46.0996ZM245.422 35.9219H246.846L246.986 35.9043L247.426 35.8867L248.006 35.8516C249.143 35.8516 250.068 35.459 250.783 34.6738C251.498 33.8887 251.855 32.8691 251.855 31.6152V31.457C251.855 30.1914 251.463 29.207 250.678 28.5039C249.904 27.7891 248.697 27.4316 247.057 27.4316H246.477C245.199 27.4316 244.473 27.5898 244.297 27.9062C244.133 28.2109 244.051 28.9844 244.051 30.2266V32.2305L244.033 32.6875V34.1641C244.033 34.8789 244.121 35.3535 244.297 35.5879C244.473 35.8105 244.848 35.9219 245.422 35.9219ZM240.676 49.123C239.246 49.123 238.531 48.373 238.531 46.873C238.531 46.7793 238.678 46.1875 238.971 45.0977C239.264 44.0078 239.41 43.0117 239.41 42.1094L239.428 41.0547V37.7676L239.445 37.2051C239.445 37.2051 239.445 36.1035 239.445 33.9004C239.445 30.9941 239.416 29.2363 239.357 28.627C239.299 28.0059 239.199 27.3965 239.059 26.7988C238.918 26.1895 238.848 25.7383 238.848 25.4453C238.848 24.9297 239.381 24.6074 240.447 24.4785C241.514 24.3496 243.277 24.2852 245.738 24.2852C248.199 24.2852 250.033 24.4258 251.24 24.707C252.447 24.9766 253.473 25.4512 254.316 26.1309C255.172 26.8105 255.77 27.5898 256.109 28.4688C256.449 29.3359 256.619 30.3672 256.619 31.5625C256.619 32.7461 256.396 33.7598 255.951 34.6035C255.506 35.4355 254.885 36.2441 254.088 37.0293C253.291 37.8027 252.893 38.4297 252.893 38.9102C252.893 39.3906 253.73 40.9668 255.406 43.6387C257.082 46.3105 257.92 47.6582 257.92 47.6816C257.92 48.2676 257.727 48.6426 257.34 48.8066C256.965 48.9707 256.291 49.0527 255.318 49.0527C254.346 49.0527 253.566 48.7773 252.98 48.2266C252.395 47.6641 251.621 46.3984 250.66 44.4297C249.711 42.4492 249.096 41.2715 248.814 40.8965C248.111 39.9707 247.414 39.5078 246.723 39.5078C246.043 39.5078 245.475 39.7363 245.018 40.1934C244.561 40.6504 244.332 41.248 244.332 41.9863C244.332 42.7129 244.414 43.5625 244.578 44.5352C244.742 45.4961 244.824 46.1406 244.824 46.4688C244.824 47.4531 244.549 48.1445 243.998 48.543C243.459 48.9297 242.521 49.123 241.186 49.123H240.676ZM276.57 24.1973C277.883 24.1973 278.75 24.3438 279.172 24.6367C279.605 24.918 279.822 25.498 279.822 26.377V26.834C279.822 27.9121 279.471 28.5156 278.768 28.6445C278.732 28.6562 278.686 28.6621 278.627 28.6621C278.287 28.6621 277.637 28.5332 276.676 28.2754C275.551 27.9824 274.713 27.8359 274.162 27.8359C273.623 27.8359 273.207 27.9824 272.914 28.2754C272.621 28.5684 272.416 29.0664 272.299 29.7695C272.182 30.4727 272.123 32.0664 272.123 34.5508V39.0156L272.105 39.5078V41.6172C272.105 42.6953 272.117 43.3574 272.141 43.6035C272.176 43.8496 272.334 44.3711 272.615 45.168C272.896 45.9883 273.037 46.7148 273.037 47.3477C273.037 48.4727 272.146 49.0352 270.365 49.0352H268.924C267.33 49.0352 266.533 48.3789 266.533 47.0664C266.533 46.6094 266.68 45.918 266.973 44.9922C267.266 44.0547 267.441 43.2402 267.5 42.5488C267.57 41.8457 267.605 39.5781 267.605 35.7461C267.605 31.9141 267.535 29.6934 267.395 29.084C267.195 28.2402 266.592 27.8184 265.584 27.8184C265.08 27.8184 264.318 27.9824 263.299 28.3105C262.291 28.627 261.641 28.7852 261.348 28.7852C260.457 28.7852 260.012 28.1992 260.012 27.0273C260.012 25.8555 260.229 25.1113 260.662 24.7949C261.107 24.4785 262.133 24.3203 263.738 24.3203L267.148 24.25L271.613 24.1973H276.57ZM297.383 26.834C297.383 25.2051 298.52 24.3906 300.793 24.3906C301.918 24.3906 302.668 24.5488 303.043 24.8652C303.418 25.1699 303.605 25.6797 303.605 26.3945C303.605 26.582 303.488 27.0801 303.254 27.8887C303.031 28.6855 302.891 29.4824 302.832 30.2793C302.785 31.0762 302.762 32.8809 302.762 35.6934V38.5586C302.727 40.0234 302.709 41.3418 302.709 42.5137C302.709 43.6855 302.773 44.4766 302.902 44.8867C303.324 46.2109 303.535 46.9492 303.535 47.1016C303.535 47.8398 303.348 48.3262 302.973 48.5605C302.598 48.7949 301.971 48.9121 301.092 48.9121H300.424C299.393 48.9121 298.619 48.7246 298.104 48.3496C297.6 47.9629 297.348 47.3418 297.348 46.4863C297.348 46.2988 297.395 45.918 297.488 45.3438L297.699 44.0957C297.84 43.0645 297.91 41.8984 297.91 40.5977C297.91 39.2969 297.576 38.4941 296.908 38.1895C296.568 38.0371 295.314 37.9609 293.146 37.9609C290.979 37.9609 289.613 38.1309 289.051 38.4707C288.488 38.8105 288.207 39.9707 288.207 41.9512C288.207 42.9238 288.307 43.9023 288.506 44.8867C288.717 45.8711 288.822 46.5273 288.822 46.8555C288.822 47.6172 288.547 48.1504 287.996 48.4551C287.445 48.7598 286.59 48.9121 285.43 48.9121C284.27 48.9121 283.537 48.7422 283.232 48.4023C282.928 48.0508 282.775 47.6523 282.775 47.207C282.775 46.7617 282.869 46.2461 283.057 45.6602C283.385 44.6289 283.549 43.5391 283.549 42.3906V40.5273L283.584 37.627V33.4961C283.584 31.2227 283.566 29.9512 283.531 29.6816C283.508 29.4004 283.355 28.9023 283.074 28.1875C282.793 27.4727 282.652 26.8457 282.652 26.3066C282.652 25.7559 282.875 25.334 283.32 25.041C283.766 24.7363 284.773 24.584 286.344 24.584C287.926 24.584 288.717 25.293 288.717 26.7109C288.717 26.7812 288.664 27.2559 288.559 28.1348C288.453 29.0137 288.4 30.1504 288.4 31.5449C288.4 32.9277 288.699 33.7949 289.297 34.1465C289.906 34.4863 291.67 34.6562 294.588 34.6562C296.111 34.6562 297.055 34.4336 297.418 33.9883C297.781 33.5312 297.963 32.582 297.963 31.1406C297.963 30.6016 297.863 29.7754 297.664 28.6621C297.477 27.5488 297.383 26.9395 297.383 26.834ZM207.98 69.834C207.98 68.2051 209.117 67.3906 211.391 67.3906C212.516 67.3906 213.266 67.5488 213.641 67.8652C214.016 68.1699 214.203 68.6797 214.203 69.3945C214.203 69.582 214.086 70.0801 213.852 70.8887C213.629 71.6855 213.488 72.4824 213.43 73.2793C213.383 74.0762 213.359 75.8809 213.359 78.6934V81.5586C213.324 83.0234 213.307 84.3418 213.307 85.5137C213.307 86.6855 213.371 87.4766 213.5 87.8867C213.922 89.2109 214.133 89.9492 214.133 90.1016C214.133 90.8398 213.945 91.3262 213.57 91.5605C213.195 91.7949 212.568 91.9121 211.689 91.9121H211.021C209.99 91.9121 209.217 91.7246 208.701 91.3496C208.197 90.9629 207.945 90.3418 207.945 89.4863C207.945 89.2988 207.992 88.918 208.086 88.3438L208.297 87.0957C208.438 86.0645 208.508 84.8984 208.508 83.5977C208.508 82.2969 208.174 81.4941 207.506 81.1895C207.166 81.0371 205.912 80.9609 203.744 80.9609C201.576 80.9609 200.211 81.1309 199.648 81.4707C199.086 81.8105 198.805 82.9707 198.805 84.9512C198.805 85.9238 198.904 86.9023 199.104 87.8867C199.314 88.8711 199.42 89.5273 199.42 89.8555C199.42 90.6172 199.145 91.1504 198.594 91.4551C198.043 91.7598 197.188 91.9121 196.027 91.9121C194.867 91.9121 194.135 91.7422 193.83 91.4023C193.525 91.0508 193.373 90.6523 193.373 90.207C193.373 89.7617 193.467 89.2461 193.654 88.6602C193.982 87.6289 194.146 86.5391 194.146 85.3906V83.5273L194.182 80.627V76.4961C194.182 74.2227 194.164 72.9512 194.129 72.6816C194.105 72.4004 193.953 71.9023 193.672 71.1875C193.391 70.4727 193.25 69.8457 193.25 69.3066C193.25 68.7559 193.473 68.334 193.918 68.041C194.363 67.7363 195.371 67.584 196.941 67.584C198.523 67.584 199.314 68.293 199.314 69.7109C199.314 69.7812 199.262 70.2559 199.156 71.1348C199.051 72.0137 198.998 73.1504 198.998 74.5449C198.998 75.9277 199.297 76.7949 199.895 77.1465C200.504 77.4863 202.268 77.6562 205.186 77.6562C206.709 77.6562 207.652 77.4336 208.016 76.9883C208.379 76.5312 208.561 75.582 208.561 74.1406C208.561 73.6016 208.461 72.7754 208.262 71.6621C208.074 70.5488 207.98 69.9395 207.98 69.834ZM222.746 78.9219V80.3281C222.746 81.5469 222.922 82.7891 223.273 84.0547C224.223 87.5469 226.168 89.293 229.109 89.293C230.902 89.293 232.338 88.5898 233.416 87.1836C233.885 86.5742 234.289 85.6777 234.629 84.4941C234.969 83.2988 235.139 82.1738 235.139 81.1191L235.174 80.5566V79.1504C235.174 78.0254 235.016 76.8359 234.699 75.582C234.113 73.25 233.082 71.6797 231.605 70.8711C230.809 70.4375 230.006 70.2207 229.197 70.2207H228.652C226.895 70.2207 225.441 71.0352 224.293 72.6641C223.918 73.2031 223.566 74.0469 223.238 75.1953C222.91 76.3438 222.746 77.5859 222.746 78.9219ZM240.166 78.8516V80.0645C240.166 81.8223 239.896 83.5215 239.357 85.1621C238.83 86.791 238.121 88.1211 237.23 89.1523C236.34 90.1719 235.18 91.0098 233.75 91.666C232.332 92.3223 230.803 92.6504 229.162 92.6504C227.533 92.6387 225.992 92.3398 224.539 91.7539C220.227 89.9961 218.07 86.0938 218.07 80.0469V79.2383C218.07 77.2812 218.352 75.5117 218.914 73.9297C219.488 72.3359 220.227 71.0527 221.129 70.0801C222.043 69.1074 223.168 68.3457 224.504 67.7949C225.852 67.2441 227.311 66.9688 228.881 66.9688H229.303C232.596 66.9688 235.256 68.0586 237.283 70.2383C238.068 71.0703 238.742 72.2656 239.305 73.8242C239.879 75.3828 240.166 77.0586 240.166 78.8516ZM270.295 89.3809C270.295 90.1895 270.09 90.7754 269.68 91.1387C269.27 91.502 268.59 91.6836 267.641 91.6836C266.703 91.6836 265.977 91.3027 265.461 90.541C265.191 90.1426 265.057 89.2637 265.057 87.9043L265.092 87.0781L265.145 86.252C265.191 85.5137 265.215 84.9453 265.215 84.5469C265.215 78.7578 264.992 75.8633 264.547 75.8633C264.336 75.8633 263.422 77.791 261.805 81.6465C260.188 85.502 259.256 87.5996 259.01 87.9395C258.506 88.6426 257.879 88.9941 257.129 88.9941C256.379 88.9941 255.758 88.5547 255.266 87.6758C255.043 87.2891 254.117 85.1973 252.488 81.4004C250.871 77.5918 249.922 75.6875 249.641 75.6875C249.207 75.6875 248.99 79.5371 248.99 87.2363C248.99 89.0527 248.844 90.1367 248.551 90.4883C248.035 91.0977 247.273 91.4023 246.266 91.4023C245.762 91.4023 245.352 91.2676 245.035 90.998C244.73 90.7168 244.578 90.4062 244.578 90.0664C244.578 89.7148 244.666 89.1934 244.842 88.502C245.029 87.8105 245.17 87.0547 245.264 86.2344C245.357 85.4141 245.404 84.002 245.404 81.998L245.422 81.084L245.545 78.3242C245.639 75.8867 245.686 74.375 245.686 73.7891C245.686 73.2031 245.645 72.6055 245.562 71.9961L245.141 69.7812C245.141 68.4219 245.979 67.7422 247.654 67.7422C249.061 67.7422 250.314 68.4746 251.416 69.9395C252.307 71.123 253.484 73.3848 254.949 76.7246C256.426 80.0527 257.322 81.7168 257.639 81.7168L258.008 81.1895L260.1 76.5664C261.963 72.5117 262.959 70.3906 263.088 70.2031C264.143 68.5859 265.561 67.7773 267.342 67.7773C268.326 67.7773 269.012 68.0059 269.398 68.4629C269.609 68.709 269.715 69.0664 269.715 69.5352L269.627 70.1855C269.58 70.6426 269.545 71.1816 269.521 71.8027L269.504 72.6641L269.521 73.5254C269.521 74.1465 269.521 74.7676 269.521 75.3887L269.609 82.8945C269.609 84.7461 269.633 85.9062 269.68 86.375C269.738 86.832 269.855 87.4121 270.031 88.1152C270.207 88.8184 270.295 89.2402 270.295 89.3809ZM291.617 69.4297C291.617 70.7539 291.008 71.416 289.789 71.416C289.637 71.4043 288.904 71.3164 287.592 71.1523C286.279 70.9883 285.031 70.9062 283.848 70.9062C282.676 70.9062 281.914 71.1875 281.562 71.75C281.211 72.3125 281.035 73.584 281.035 75.5645C281.035 76.209 281.24 76.707 281.65 77.0586C282.072 77.4102 282.84 77.5859 283.953 77.5859C284.258 77.5859 284.779 77.5039 285.518 77.3398C286.256 77.1641 286.883 77.0762 287.398 77.0762C288.641 77.0762 289.262 77.6445 289.262 78.7812C289.262 79.6133 289.197 80.2051 289.068 80.5566C288.857 81.1426 288.471 81.4355 287.908 81.4355C287.357 81.4355 286.707 81.3594 285.957 81.207C285.207 81.043 284.375 80.9609 283.461 80.9609C282.547 80.9609 281.879 81.1543 281.457 81.541C281.035 81.9277 280.824 82.9648 280.824 84.6523C280.824 86.3281 281.035 87.4238 281.457 87.9395C281.891 88.4551 282.617 88.7129 283.637 88.7129C284.668 88.7129 285.939 88.5781 287.451 88.3086C288.963 88.0273 289.93 87.8867 290.352 87.8867C290.785 87.8867 291.178 88.0156 291.529 88.2734C291.893 88.5312 292.074 89.0938 292.074 89.9609C292.074 90.8281 291.67 91.4199 290.861 91.7363C290.287 91.959 288.4 92.0703 285.201 92.0703H280.525C278.311 92.0703 276.875 91.9473 276.219 91.7012C275.562 91.4434 275.234 90.916 275.234 90.1191C275.234 89.8496 275.352 89.3047 275.586 88.4844C275.82 87.6641 275.943 86.0762 275.955 83.7207C275.955 81.3652 275.99 79.3086 276.061 77.5508L276.148 75.582C276.195 74.4219 276.219 73.5078 276.219 72.8398C276.219 72.1719 276.09 71.457 275.832 70.6953C275.574 69.9453 275.445 69.3594 275.445 68.9375C275.445 68.5156 275.568 68.2109 275.814 68.0234C276.072 67.8359 276.588 67.6719 277.361 67.5312C278.135 67.3906 280.777 67.3203 285.289 67.3203L287.223 67.3027H287.855C289.262 67.3027 290.24 67.4668 290.791 67.7949C291.342 68.123 291.617 68.668 291.617 69.4297Z" fill="black"/>
<defs>
<clipPath id="clip0_13_38">
<rect width="64" height="64" fill="white" transform="translate(0 28)"/>
</clipPath>
</defs>
</svg>
