<svg width="312" height="115" viewBox="0 0 312 115" fill="none" xmlns="http://www.w3.org/2000/svg">
<g clip-path="url(#clip0_13_38)">
<path d="M36.973 94C56.3179 94 72 77.8823 72 58C72 38.1177 56.3179 22 36.973 22C17.6281 22 1.94598 38.1177 1.94598 58C1.94598 77.8823 17.6281 94 36.973 94Z" fill="#00A3FF"/>
<mask id="mask0_13_38" style="mask-type:luminance" maskUnits="userSpaceOnUse" x="1" y="22" width="72" height="72">
<path d="M36.9731 94C56.318 94 72.0002 77.8823 72.0002 58C72.0002 38.1177 56.318 22 36.9731 22C17.6281 22 1.94598 38.1177 1.94598 58C1.94598 77.8823 17.6281 94 36.9731 94Z" fill="white"/>
</mask>
<g mask="url(#mask0_13_38)">
<path fill-rule="evenodd" clip-rule="evenodd" d="M55.116 47.995C55.116 47.995 46.834 44.43 44.367 46.213C41.9 47.995 43.218 56.413 43.218 56.413C43.218 56.413 39.541 61.971 41.38 64.894C43.218 67.817 48.324 66.812 51.193 69.391C54.062 71.969 52.87 76.597 52.87 76.597L52.176 82C52.176 82 59.86 78.368 62.074 73.135C64.288 67.902 63.571 59.699 63.571 59.699L68.056 55.409L72 41.918L58.16 37.196L56.635 30L46.738 32.959L45.843 40.808L53.445 43.463L55.116 47.995ZM0 52C0 52 2.944 50.162 3.337 50.133C6.352 49.908 16.858 50.536 19.604 46.636C22.709 42.229 25.297 36.392 25.297 36.392L25.193 31.901L8.959 28L0 52Z" fill="#00790C"/>
</g>
</g>
<path d="M83.7188 27.4531C87.8125 27.4531 89.8594 29.1094 89.8594 32.4219L89.7656 33.5469L89.4375 36.0312C89.3125 37.4688 89.25 39.5 89.25 42.125V51.7812C89.25 65.3438 89.8594 73.5938 91.0781 76.5312C93.3906 82.0938 97.6562 84.8906 103.875 84.9219C107.375 84.9219 110.203 84 112.359 82.1562C114.547 80.2812 116.109 77.9844 117.047 75.2656C118.453 71.2344 119.156 61.5312 119.156 46.1562C119.156 40.5312 119.031 36.6719 118.781 34.5781C118.562 32.4531 118.453 31.0938 118.453 30.5C118.453 28.2813 120.062 27.1719 123.281 27.1719H124.688C126.188 27.1719 127.328 27.6719 128.109 28.6719C129.453 30.3906 130.125 31.9531 130.125 33.3594V34.8594C130.125 35.5469 129.766 36.8906 129.047 38.8906C128.359 40.8906 127.953 42.8281 127.828 44.7031C127.734 46.5469 127.688 51.3438 127.688 59.0938C127.688 59.5 127.688 59.9062 127.688 60.3125C127.688 67.4062 127.422 72.4219 126.891 75.3594C126.328 78.4531 125.078 81.3125 123.141 83.9375C119.234 89.1875 112.25 91.8125 102.188 91.8125C89.125 91.8125 81.6562 85.75 79.7812 73.625C79.3125 70.5938 79.0781 66.0938 79.0781 60.125C79.0781 54.125 79 49.4844 78.8438 46.2031C78.7188 42.8906 78.2656 40.2188 77.4844 38.1875C76.7344 36.1562 76.3594 34.6875 76.3594 33.7812C76.3594 31.6875 77.1719 29.9375 78.7969 28.5312C79.6406 27.8125 81.2812 27.4531 83.7188 27.4531ZM159.562 58.2969H160.734C165.672 58.2969 169.594 57.1562 172.5 54.875C175.406 52.5938 176.859 49.5469 176.859 45.7344V43.4375C176.859 40.0625 175.75 37.375 173.531 35.375C171.344 33.3438 168.297 32.3281 164.391 32.3281H162.75L162.328 32.375L160.734 32.4688C160.172 32.5312 159.781 32.5625 159.562 32.5625C156.906 32.5625 155.578 33.8281 155.578 36.3594L155.438 37.5781L155.344 39.3125C155.344 39.5938 155.344 39.875 155.344 40.1562L155.297 40.625V42.7812L155.25 44.0938V51.9688L155.203 53.2812C155.203 55.4375 155.469 56.8125 156 57.4062C156.531 58 157.719 58.2969 159.562 58.2969ZM145.172 41.4219C145.141 40.5156 145.125 39.2031 145.125 37.4844C145.125 35.7344 144.969 33.9688 144.656 32.1875C144.344 30.4062 144.188 29.3125 144.188 28.9062C144.188 27.6875 145.406 26.8594 147.844 26.4219C150.281 25.9844 154.562 25.7656 160.688 25.7656H163.594C175.531 25.7656 183 29.375 186 36.5938C186.781 38.5 187.172 40.8594 187.172 43.6719C187.172 46.4531 186.625 48.9688 185.531 51.2188C184.438 53.4375 182.781 55.7188 180.562 58.0625C178.375 60.375 177.281 62.3125 177.281 63.875C177.281 65.4062 178.625 68.5469 181.312 73.2969C184.031 78.0156 186.031 81.0625 187.312 82.4375C189.812 85.0625 191.062 86.8906 191.062 87.9219V88.7656C191.062 90.2344 189.906 90.9688 187.594 90.9688H186.469C184.344 90.9688 182.391 90.0312 180.609 88.1562C179.578 87.0625 177.391 83.7344 174.047 78.1719C170.703 72.5781 168.844 69.5781 168.469 69.1719C166.5 66.9844 164.359 65.8906 162.047 65.8906C159.734 65.8906 157.984 67.125 156.797 69.5938C156.203 70.8125 155.906 72.6406 155.906 75.0781C155.906 77.5156 156.109 79.7969 156.516 81.9219C156.922 84.0156 157.125 85.2188 157.125 85.5312C157.125 87.375 156.391 88.7188 154.922 89.5625C153.484 90.4062 151.688 90.8281 149.531 90.8281C147.375 90.8281 145.875 90.5 145.031 89.8438C143.531 88.6875 142.781 87.0938 142.781 85.0625C142.781 84.2812 143.141 83.0781 143.859 81.4531C144.609 79.7969 145.062 78.2656 145.219 76.8594C145.406 75.4531 145.5 72.2344 145.5 67.2031V53.8906L145.453 52.4844C145.422 51.5469 145.406 50.6094 145.406 49.6719L145.266 44.1406L145.172 41.4219Z" fill="black"/>
<path d="M215.773 26.4297C215.773 27.7539 215.164 28.416 213.945 28.416C213.793 28.4043 213.061 28.3164 211.748 28.1523C210.436 27.9883 209.188 27.9062 208.004 27.9062C206.832 27.9062 206.07 28.1875 205.719 28.75C205.367 29.3125 205.191 30.584 205.191 32.5645C205.191 33.209 205.396 33.707 205.807 34.0586C206.229 34.4102 206.996 34.5859 208.109 34.5859C208.414 34.5859 208.936 34.5039 209.674 34.3398C210.412 34.1641 211.039 34.0762 211.555 34.0762C212.797 34.0762 213.418 34.6445 213.418 35.7812C213.418 36.6133 213.354 37.2051 213.225 37.5566C213.014 38.1426 212.627 38.4355 212.064 38.4355C211.514 38.4355 210.863 38.3594 210.113 38.207C209.363 38.043 208.531 37.9609 207.617 37.9609C206.703 37.9609 206.035 38.1543 205.613 38.541C205.191 38.9277 204.98 39.9648 204.98 41.6523C204.98 43.3281 205.191 44.4238 205.613 44.9395C206.047 45.4551 206.773 45.7129 207.793 45.7129C208.824 45.7129 210.096 45.5781 211.607 45.3086C213.119 45.0273 214.086 44.8867 214.508 44.8867C214.941 44.8867 215.334 45.0156 215.686 45.2734C216.049 45.5312 216.23 46.0938 216.23 46.9609C216.23 47.8281 215.826 48.4199 215.018 48.7363C214.443 48.959 212.557 49.0703 209.357 49.0703H204.682C202.467 49.0703 201.031 48.9473 200.375 48.7012C199.719 48.4434 199.391 47.916 199.391 47.1191C199.391 46.8496 199.508 46.3047 199.742 45.4844C199.977 44.6641 200.1 43.0762 200.111 40.7207C200.111 38.3652 200.146 36.3086 200.217 34.5508L200.305 32.582C200.352 31.4219 200.375 30.5078 200.375 29.8398C200.375 29.1719 200.246 28.457 199.988 27.6953C199.73 26.9453 199.602 26.3594 199.602 25.9375C199.602 25.5156 199.725 25.2109 199.971 25.0234C200.229 24.8359 200.744 24.6719 201.518 24.5312C202.291 24.3906 204.934 24.3203 209.445 24.3203L211.379 24.3027H212.012C213.418 24.3027 214.396 24.4668 214.947 24.7949C215.498 25.123 215.773 25.668 215.773 26.4297ZM226.795 38.3125V38.5234C226.795 38.7695 227.598 38.8926 229.203 38.8926H230.697C232.162 38.8926 232.895 38.7812 232.895 38.5586V38.3477C232.895 37.3047 232.068 34.6328 230.416 30.332C230.193 29.7461 230.041 29.4531 229.959 29.4531C229.936 29.4531 229.871 29.582 229.766 29.8398C229.672 30.0859 229.555 30.3613 229.414 30.666C227.668 34.4512 226.795 37 226.795 38.3125ZM240.717 46.0996V46.4512C240.717 47.5059 240.418 48.2266 239.82 48.6133C239.434 48.8594 238.771 48.9824 237.834 48.9824H237.412C236.451 48.9824 235.807 48.6953 235.479 48.1211C235.314 47.8398 235.133 47.0195 234.934 45.6602C234.734 44.3008 234.389 43.3633 233.896 42.8477C233.404 42.332 232.479 42.0742 231.119 42.0742C228.025 42.0742 226.209 42.3145 225.67 42.7949C225.131 43.2754 224.744 44.2539 224.51 45.7305C224.275 47.1953 224.1 48.0156 223.982 48.1914C223.678 48.6602 223.068 48.8945 222.154 48.8945C221.24 48.8945 220.607 48.6484 220.256 48.1562C219.916 47.6641 219.746 47.0137 219.746 46.2051C219.746 45.8418 220.238 44.6758 221.223 42.707C221.316 42.5312 222.201 40.0176 223.877 35.166C225.553 30.3027 226.619 27.3965 227.076 26.4473C227.545 25.4863 227.996 24.8711 228.43 24.6016C228.863 24.332 229.508 24.1973 230.363 24.1973C231.23 24.1973 231.857 24.4082 232.244 24.8301C232.631 25.2402 233.123 26.0898 233.721 27.3789C234.33 28.668 235.162 30.7832 236.217 33.7246C237.283 36.666 238.062 38.8926 238.555 40.4043C239.047 41.9043 239.334 42.7539 239.416 42.9531C240.283 44.9453 240.717 45.9941 240.717 46.0996ZM251.422 35.9219H252.846L252.986 35.9043L253.426 35.8867L254.006 35.8516C255.143 35.8516 256.068 35.459 256.783 34.6738C257.498 33.8887 257.855 32.8691 257.855 31.6152V31.457C257.855 30.1914 257.463 29.207 256.678 28.5039C255.904 27.7891 254.697 27.4316 253.057 27.4316H252.477C251.199 27.4316 250.473 27.5898 250.297 27.9062C250.133 28.2109 250.051 28.9844 250.051 30.2266V32.2305L250.033 32.6875V34.1641C250.033 34.8789 250.121 35.3535 250.297 35.5879C250.473 35.8105 250.848 35.9219 251.422 35.9219ZM246.676 49.123C245.246 49.123 244.531 48.373 244.531 46.873C244.531 46.7793 244.678 46.1875 244.971 45.0977C245.264 44.0078 245.41 43.0117 245.41 42.1094L245.428 41.0547V37.7676L245.445 37.2051C245.445 37.2051 245.445 36.1035 245.445 33.9004C245.445 30.9941 245.416 29.2363 245.357 28.627C245.299 28.0059 245.199 27.3965 245.059 26.7988C244.918 26.1895 244.848 25.7383 244.848 25.4453C244.848 24.9297 245.381 24.6074 246.447 24.4785C247.514 24.3496 249.277 24.2852 251.738 24.2852C254.199 24.2852 256.033 24.4258 257.24 24.707C258.447 24.9766 259.473 25.4512 260.316 26.1309C261.172 26.8105 261.77 27.5898 262.109 28.4688C262.449 29.3359 262.619 30.3672 262.619 31.5625C262.619 32.7461 262.396 33.7598 261.951 34.6035C261.506 35.4355 260.885 36.2441 260.088 37.0293C259.291 37.8027 258.893 38.4297 258.893 38.9102C258.893 39.3906 259.73 40.9668 261.406 43.6387C263.082 46.3105 263.92 47.6582 263.92 47.6816C263.92 48.2676 263.727 48.6426 263.34 48.8066C262.965 48.9707 262.291 49.0527 261.318 49.0527C260.346 49.0527 259.566 48.7773 258.98 48.2266C258.395 47.6641 257.621 46.3984 256.66 44.4297C255.711 42.4492 255.096 41.2715 254.814 40.8965C254.111 39.9707 253.414 39.5078 252.723 39.5078C252.043 39.5078 251.475 39.7363 251.018 40.1934C250.561 40.6504 250.332 41.248 250.332 41.9863C250.332 42.7129 250.414 43.5625 250.578 44.5352C250.742 45.4961 250.824 46.1406 250.824 46.4688C250.824 47.4531 250.549 48.1445 249.998 48.543C249.459 48.9297 248.521 49.123 247.186 49.123H246.676ZM282.57 24.1973C283.883 24.1973 284.75 24.3438 285.172 24.6367C285.605 24.918 285.822 25.498 285.822 26.377V26.834C285.822 27.9121 285.471 28.5156 284.768 28.6445C284.732 28.6562 284.686 28.6621 284.627 28.6621C284.287 28.6621 283.637 28.5332 282.676 28.2754C281.551 27.9824 280.713 27.8359 280.162 27.8359C279.623 27.8359 279.207 27.9824 278.914 28.2754C278.621 28.5684 278.416 29.0664 278.299 29.7695C278.182 30.4727 278.123 32.0664 278.123 34.5508V39.0156L278.105 39.5078V41.6172C278.105 42.6953 278.117 43.3574 278.141 43.6035C278.176 43.8496 278.334 44.3711 278.615 45.168C278.896 45.9883 279.037 46.7148 279.037 47.3477C279.037 48.4727 278.146 49.0352 276.365 49.0352H274.924C273.33 49.0352 272.533 48.3789 272.533 47.0664C272.533 46.6094 272.68 45.918 272.973 44.9922C273.266 44.0547 273.441 43.2402 273.5 42.5488C273.57 41.8457 273.605 39.5781 273.605 35.7461C273.605 31.9141 273.535 29.6934 273.395 29.084C273.195 28.2402 272.592 27.8184 271.584 27.8184C271.08 27.8184 270.318 27.9824 269.299 28.3105C268.291 28.627 267.641 28.7852 267.348 28.7852C266.457 28.7852 266.012 28.1992 266.012 27.0273C266.012 25.8555 266.229 25.1113 266.662 24.7949C267.107 24.4785 268.133 24.3203 269.738 24.3203L273.148 24.25L277.613 24.1973H282.57ZM303.383 26.834C303.383 25.2051 304.52 24.3906 306.793 24.3906C307.918 24.3906 308.668 24.5488 309.043 24.8652C309.418 25.1699 309.605 25.6797 309.605 26.3945C309.605 26.582 309.488 27.0801 309.254 27.8887C309.031 28.6855 308.891 29.4824 308.832 30.2793C308.785 31.0762 308.762 32.8809 308.762 35.6934V38.5586C308.727 40.0234 308.709 41.3418 308.709 42.5137C308.709 43.6855 308.773 44.4766 308.902 44.8867C309.324 46.2109 309.535 46.9492 309.535 47.1016C309.535 47.8398 309.348 48.3262 308.973 48.5605C308.598 48.7949 307.971 48.9121 307.092 48.9121H306.424C305.393 48.9121 304.619 48.7246 304.104 48.3496C303.6 47.9629 303.348 47.3418 303.348 46.4863C303.348 46.2988 303.395 45.918 303.488 45.3438L303.699 44.0957C303.84 43.0645 303.91 41.8984 303.91 40.5977C303.91 39.2969 303.576 38.4941 302.908 38.1895C302.568 38.0371 301.314 37.9609 299.146 37.9609C296.979 37.9609 295.613 38.1309 295.051 38.4707C294.488 38.8105 294.207 39.9707 294.207 41.9512C294.207 42.9238 294.307 43.9023 294.506 44.8867C294.717 45.8711 294.822 46.5273 294.822 46.8555C294.822 47.6172 294.547 48.1504 293.996 48.4551C293.445 48.7598 292.59 48.9121 291.43 48.9121C290.27 48.9121 289.537 48.7422 289.232 48.4023C288.928 48.0508 288.775 47.6523 288.775 47.207C288.775 46.7617 288.869 46.2461 289.057 45.6602C289.385 44.6289 289.549 43.5391 289.549 42.3906V40.5273L289.584 37.627V33.4961C289.584 31.2227 289.566 29.9512 289.531 29.6816C289.508 29.4004 289.355 28.9023 289.074 28.1875C288.793 27.4727 288.652 26.8457 288.652 26.3066C288.652 25.7559 288.875 25.334 289.32 25.041C289.766 24.7363 290.773 24.584 292.344 24.584C293.926 24.584 294.717 25.293 294.717 26.7109C294.717 26.7812 294.664 27.2559 294.559 28.1348C294.453 29.0137 294.4 30.1504 294.4 31.5449C294.4 32.9277 294.699 33.7949 295.297 34.1465C295.906 34.4863 297.67 34.6562 300.588 34.6562C302.111 34.6562 303.055 34.4336 303.418 33.9883C303.781 33.5312 303.963 32.582 303.963 31.1406C303.963 30.6016 303.863 29.7754 303.664 28.6621C303.477 27.5488 303.383 26.9395 303.383 26.834ZM213.98 69.834C213.98 68.2051 215.117 67.3906 217.391 67.3906C218.516 67.3906 219.266 67.5488 219.641 67.8652C220.016 68.1699 220.203 68.6797 220.203 69.3945C220.203 69.582 220.086 70.0801 219.852 70.8887C219.629 71.6855 219.488 72.4824 219.43 73.2793C219.383 74.0762 219.359 75.8809 219.359 78.6934V81.5586C219.324 83.0234 219.307 84.3418 219.307 85.5137C219.307 86.6855 219.371 87.4766 219.5 87.8867C219.922 89.2109 220.133 89.9492 220.133 90.1016C220.133 90.8398 219.945 91.3262 219.57 91.5605C219.195 91.7949 218.568 91.9121 217.689 91.9121H217.021C215.99 91.9121 215.217 91.7246 214.701 91.3496C214.197 90.9629 213.945 90.3418 213.945 89.4863C213.945 89.2988 213.992 88.918 214.086 88.3438L214.297 87.0957C214.438 86.0645 214.508 84.8984 214.508 83.5977C214.508 82.2969 214.174 81.4941 213.506 81.1895C213.166 81.0371 211.912 80.9609 209.744 80.9609C207.576 80.9609 206.211 81.1309 205.648 81.4707C205.086 81.8105 204.805 82.9707 204.805 84.9512C204.805 85.9238 204.904 86.9023 205.104 87.8867C205.314 88.8711 205.42 89.5273 205.42 89.8555C205.42 90.6172 205.145 91.1504 204.594 91.4551C204.043 91.7598 203.188 91.9121 202.027 91.9121C200.867 91.9121 200.135 91.7422 199.83 91.4023C199.525 91.0508 199.373 90.6523 199.373 90.207C199.373 89.7617 199.467 89.2461 199.654 88.6602C199.982 87.6289 200.146 86.5391 200.146 85.3906V83.5273L200.182 80.627V76.4961C200.182 74.2227 200.164 72.9512 200.129 72.6816C200.105 72.4004 199.953 71.9023 199.672 71.1875C199.391 70.4727 199.25 69.8457 199.25 69.3066C199.25 68.7559 199.473 68.334 199.918 68.041C200.363 67.7363 201.371 67.584 202.941 67.584C204.523 67.584 205.314 68.293 205.314 69.7109C205.314 69.7812 205.262 70.2559 205.156 71.1348C205.051 72.0137 204.998 73.1504 204.998 74.5449C204.998 75.9277 205.297 76.7949 205.895 77.1465C206.504 77.4863 208.268 77.6562 211.186 77.6562C212.709 77.6562 213.652 77.4336 214.016 76.9883C214.379 76.5312 214.561 75.582 214.561 74.1406C214.561 73.6016 214.461 72.7754 214.262 71.6621C214.074 70.5488 213.98 69.9395 213.98 69.834ZM228.746 78.9219V80.3281C228.746 81.5469 228.922 82.7891 229.273 84.0547C230.223 87.5469 232.168 89.293 235.109 89.293C236.902 89.293 238.338 88.5898 239.416 87.1836C239.885 86.5742 240.289 85.6777 240.629 84.4941C240.969 83.2988 241.139 82.1738 241.139 81.1191L241.174 80.5566V79.1504C241.174 78.0254 241.016 76.8359 240.699 75.582C240.113 73.25 239.082 71.6797 237.605 70.8711C236.809 70.4375 236.006 70.2207 235.197 70.2207H234.652C232.895 70.2207 231.441 71.0352 230.293 72.6641C229.918 73.2031 229.566 74.0469 229.238 75.1953C228.91 76.3438 228.746 77.5859 228.746 78.9219ZM246.166 78.8516V80.0645C246.166 81.8223 245.896 83.5215 245.357 85.1621C244.83 86.791 244.121 88.1211 243.23 89.1523C242.34 90.1719 241.18 91.0098 239.75 91.666C238.332 92.3223 236.803 92.6504 235.162 92.6504C233.533 92.6387 231.992 92.3398 230.539 91.7539C226.227 89.9961 224.07 86.0938 224.07 80.0469V79.2383C224.07 77.2812 224.352 75.5117 224.914 73.9297C225.488 72.3359 226.227 71.0527 227.129 70.0801C228.043 69.1074 229.168 68.3457 230.504 67.7949C231.852 67.2441 233.311 66.9688 234.881 66.9688H235.303C238.596 66.9688 241.256 68.0586 243.283 70.2383C244.068 71.0703 244.742 72.2656 245.305 73.8242C245.879 75.3828 246.166 77.0586 246.166 78.8516ZM276.295 89.3809C276.295 90.1895 276.09 90.7754 275.68 91.1387C275.27 91.502 274.59 91.6836 273.641 91.6836C272.703 91.6836 271.977 91.3027 271.461 90.541C271.191 90.1426 271.057 89.2637 271.057 87.9043L271.092 87.0781L271.145 86.252C271.191 85.5137 271.215 84.9453 271.215 84.5469C271.215 78.7578 270.992 75.8633 270.547 75.8633C270.336 75.8633 269.422 77.791 267.805 81.6465C266.188 85.502 265.256 87.5996 265.01 87.9395C264.506 88.6426 263.879 88.9941 263.129 88.9941C262.379 88.9941 261.758 88.5547 261.266 87.6758C261.043 87.2891 260.117 85.1973 258.488 81.4004C256.871 77.5918 255.922 75.6875 255.641 75.6875C255.207 75.6875 254.99 79.5371 254.99 87.2363C254.99 89.0527 254.844 90.1367 254.551 90.4883C254.035 91.0977 253.273 91.4023 252.266 91.4023C251.762 91.4023 251.352 91.2676 251.035 90.998C250.73 90.7168 250.578 90.4062 250.578 90.0664C250.578 89.7148 250.666 89.1934 250.842 88.502C251.029 87.8105 251.17 87.0547 251.264 86.2344C251.357 85.4141 251.404 84.002 251.404 81.998L251.422 81.084L251.545 78.3242C251.639 75.8867 251.686 74.375 251.686 73.7891C251.686 73.2031 251.645 72.6055 251.562 71.9961L251.141 69.7812C251.141 68.4219 251.979 67.7422 253.654 67.7422C255.061 67.7422 256.314 68.4746 257.416 69.9395C258.307 71.123 259.484 73.3848 260.949 76.7246C262.426 80.0527 263.322 81.7168 263.639 81.7168L264.008 81.1895L266.1 76.5664C267.963 72.5117 268.959 70.3906 269.088 70.2031C270.143 68.5859 271.561 67.7773 273.342 67.7773C274.326 67.7773 275.012 68.0059 275.398 68.4629C275.609 68.709 275.715 69.0664 275.715 69.5352L275.627 70.1855C275.58 70.6426 275.545 71.1816 275.521 71.8027L275.504 72.6641L275.521 73.5254C275.521 74.1465 275.521 74.7676 275.521 75.3887L275.609 82.8945C275.609 84.7461 275.633 85.9062 275.68 86.375C275.738 86.832 275.855 87.4121 276.031 88.1152C276.207 88.8184 276.295 89.2402 276.295 89.3809ZM297.617 69.4297C297.617 70.7539 297.008 71.416 295.789 71.416C295.637 71.4043 294.904 71.3164 293.592 71.1523C292.279 70.9883 291.031 70.9062 289.848 70.9062C288.676 70.9062 287.914 71.1875 287.562 71.75C287.211 72.3125 287.035 73.584 287.035 75.5645C287.035 76.209 287.24 76.707 287.65 77.0586C288.072 77.4102 288.84 77.5859 289.953 77.5859C290.258 77.5859 290.779 77.5039 291.518 77.3398C292.256 77.1641 292.883 77.0762 293.398 77.0762C294.641 77.0762 295.262 77.6445 295.262 78.7812C295.262 79.6133 295.197 80.2051 295.068 80.5566C294.857 81.1426 294.471 81.4355 293.908 81.4355C293.357 81.4355 292.707 81.3594 291.957 81.207C291.207 81.043 290.375 80.9609 289.461 80.9609C288.547 80.9609 287.879 81.1543 287.457 81.541C287.035 81.9277 286.824 82.9648 286.824 84.6523C286.824 86.3281 287.035 87.4238 287.457 87.9395C287.891 88.4551 288.617 88.7129 289.637 88.7129C290.668 88.7129 291.939 88.5781 293.451 88.3086C294.963 88.0273 295.93 87.8867 296.352 87.8867C296.785 87.8867 297.178 88.0156 297.529 88.2734C297.893 88.5312 298.074 89.0938 298.074 89.9609C298.074 90.8281 297.67 91.4199 296.861 91.7363C296.287 91.959 294.4 92.0703 291.201 92.0703H286.525C284.311 92.0703 282.875 91.9473 282.219 91.7012C281.562 91.4434 281.234 90.916 281.234 90.1191C281.234 89.8496 281.352 89.3047 281.586 88.4844C281.82 87.6641 281.943 86.0762 281.955 83.7207C281.955 81.3652 281.99 79.3086 282.061 77.5508L282.148 75.582C282.195 74.4219 282.219 73.5078 282.219 72.8398C282.219 72.1719 282.09 71.457 281.832 70.6953C281.574 69.9453 281.445 69.3594 281.445 68.9375C281.445 68.5156 281.568 68.2109 281.814 68.0234C282.072 67.8359 282.588 67.6719 283.361 67.5312C284.135 67.3906 286.777 67.3203 291.289 67.3203L293.223 67.3027H293.855C295.262 67.3027 296.24 67.4668 296.791 67.7949C297.342 68.123 297.617 68.668 297.617 69.4297Z" fill="black"/>
<defs>
<clipPath id="clip0_13_38">
<rect width="72" height="72" fill="white" transform="translate(0 22)"/>
</clipPath>
</defs>
</svg>
