<svg width="64" height="64" viewBox="0 0 64 64" fill="none" xmlns="http://www.w3.org/2000/svg">
<g clip-path="url(#clip0_10_3)">
<path d="M32.8649 64C50.0604 64 64 49.6731 64 32C64 14.3269 50.0604 0 32.8649 0C15.6695 0 1.7298 14.3269 1.7298 32C1.7298 49.6731 15.6695 64 32.8649 64Z" fill="#00A3FF"/>
<mask id="mask0_10_3" style="mask-type:luminance" maskUnits="userSpaceOnUse" x="1" y="0" width="64" height="64">
<path d="M32.865 64C50.0605 64 64.0002 49.6731 64.0002 32C64.0002 14.3269 50.0605 0 32.865 0C15.6695 0 1.7298 14.3269 1.7298 32C1.7298 49.6731 15.6695 64 32.865 64Z" fill="white"/>
</mask>
<g mask="url(#mask0_10_3)">
<path fill-rule="evenodd" clip-rule="evenodd" d="M48.992 23.1067C48.992 23.1067 41.6302 19.9378 39.4373 21.5227C37.2444 23.1067 38.416 30.5893 38.416 30.5893C38.416 30.5893 35.1476 35.5298 36.7822 38.128C38.416 40.7262 42.9547 39.8329 45.5049 42.1253C48.0551 44.4169 46.9956 48.5307 46.9956 48.5307L46.3787 53.3333C46.3787 53.3333 53.2089 50.1049 55.1769 45.4533C57.1449 40.8018 56.5076 33.5102 56.5076 33.5102L60.4942 29.6969L64 17.7049L51.6978 13.5076L50.3422 7.11111L41.5449 9.74133L40.7493 16.7182L47.5067 19.0782L48.992 23.1067ZM0 26.6667C0 26.6667 2.61689 25.0329 2.96622 25.0071C5.64622 24.8071 14.9849 25.3653 17.4258 21.8987C20.1858 17.9813 22.4862 12.7929 22.4862 12.7929L22.3938 8.80089L7.96356 5.33333L0 26.6667Z" fill="#00790C"/>
</g>
</g>
<defs>
<clipPath id="clip0_10_3">
<rect width="64" height="64" fill="white"/>
</clipPath>
</defs>
</svg>
